<?xml version="1.0" encoding="utf-8"?>
<!-- Generator: Adobe Illustrator 16.0.4, SVG Export Plug-In . SVG Version: 6.00 Build 0)  -->
<!DOCTYPE svg PUBLIC "-//W3C//DTD SVG 1.1//EN" "http://www.w3.org/Graphics/SVG/1.1/DTD/svg11.dtd">
<svg version="1.1" id="Layer_1" xmlns="http://www.w3.org/2000/svg" xmlns:xlink="http://www.w3.org/1999/xlink" x="0px" y="0px"
	 width="126px" height="126px" viewBox="0 0 126 126" enable-background="new 0 0 126 126" xml:space="preserve">
<path d="M105.068,40.201l-0.02-0.109l-0.727-0.916L90.128,50.44l-0.081-0.1l-2.518,1.999c-0.032,0.112-0.077,0.22-0.12,0.329
	c-0.165-0.035-0.334-0.059-0.509-0.064l-14.691-0.457l-8.01-16.689c-0.049-0.102-0.106-0.21-0.164-0.309
	c-0.518-0.886-1.297-1.521-2.184-1.867l0.012-0.1L61.4,33.131c-0.431-0.117-0.881-0.167-1.332-0.148l-2.473-0.275l-5.72-0.687
	l-3.199-0.493l-0.084,0.09c-0.635-0.015-1.281,0.104-1.898,0.383l-12.919,5.843l-0.308,0.139c-0.805,0.367-1.465,1.049-1.78,1.95
	L24.966,59.13c-0.481,1.386,0.164,2.947,1.527,3.563c1.444,0.652,3.144,0.01,3.795-1.434l7.641-16.928l2.929-1.028l-3.256,19.614
	l-0.369,1.53c-0.238,0.593-0.385,1.232-0.408,1.906L36.339,80.45l-14.516,24.743c-0.098,0.168-0.171,0.343-0.24,0.52l0.027,0.021
	c-0.056,0.08-0.121,0.149-0.172,0.236c-1.136,1.893-0.677,4.258,1.026,5.279c1.553,0.934,3.594,0.416,4.806-1.116l0.05,0.039
	l0.706-0.976L45.451,84.58c0.379-0.54,0.646-1.193,0.73-1.895l0.051-0.422l1.027-8.533l12.71,14.799l-5.153,23.154
	c-0.173,0.789-0.56,2.277-0.56,2.277s0.021,0.004,0.053,0.012c-0.352,2.111,0.871,4.107,2.801,4.494
	c1.974,0.396,3.926-1.037,4.362-3.203c0.014-0.068,0.011-0.134,0.021-0.201c0.105-0.265,0.403-1.309,0.458-1.486l7.757-25.119
	c0.381-1.264,0.194-2.706-0.642-3.855l-0.226-0.309L57.419,68.602l2.833-22.577l6.561,11.258l0.145,0.25
	c0.604,1.031,1.746,1.698,3.021,1.636l16.974-0.833c1.291-0.067,2.375-0.993,2.655-2.23l2.363-1.875l1.014,1.278l0.322-0.169
	c0.103-0.055,2.541-1.34,5.211-3.458C101.977,49.137,105.922,44.883,105.068,40.201z M89.619,54.893
	c-0.167-0.815-0.68-1.508-1.383-1.912l1.658-1.316l1.465,1.846L89.619,54.893z M97.971,51.191c-2.052,1.628-4.007,2.775-4.755,3.193
	l-0.556-0.701l0.025-0.019l-2.011-2.534l13.505-10.715l0.039,0.051C104.913,44.68,101.213,48.619,97.971,51.191z M94.046,49.105
	l4.36,0.503l-0.055,0.469l-4.359-0.503L94.046,49.105z M95.266,48.138l4.361,0.502l-0.055,0.469l-4.36-0.503L95.266,48.138z
	 M43.416,19.119c0-6.435,5.216-11.651,11.651-11.651s11.651,5.216,11.651,11.651c0,6.435-5.216,11.651-11.651,11.651
	S43.416,25.554,43.416,19.119z"/>
</svg>
