<?xml version="1.0" encoding="utf-8"?>
<!-- Generator: Adobe Illustrator 16.0.0, SVG Export Plug-In . SVG Version: 6.00 Build 0)  -->
<!DOCTYPE svg PUBLIC "-//W3C//DTD SVG 1.1//EN" "http://www.w3.org/Graphics/SVG/1.1/DTD/svg11.dtd">
<svg version="1.1" id="Layer_1" xmlns="http://www.w3.org/2000/svg" xmlns:xlink="http://www.w3.org/1999/xlink" x="0px" y="0px"
	 width="126px" height="126px" viewBox="0 0 126 126" enable-background="new 0 0 126 126" xml:space="preserve">
<g>
	<rect x="53.877" y="87.526" width="46.396" height="5.331"/>
	<path d="M118.757,67.228v-6.261h-11.183v6.261h-3.687l-9.751-14.466H58.073l-8.919,13.237l-4.684-9.652l0.019-0.01l-0.643-1.277
		l-1.414-2.915c-0.077-0.505-0.332-0.963-0.711-1.302l-1.741-3.453l-0.984,0.497l1.149,2.282l-3.808-1.04l-4.371-4.179
		c-0.578-2.347-2.32-4.348-4.792-5.131c-3.775-1.196-7.805,0.896-9,4.671l-4.563,14.407c-0.321,1.015-0.398,2.047-0.275,3.039
		c-0.155,0.381-0.251,0.793-0.267,1.229l-0.321,9.358L7.348,89.847c-0.354,1.15,0.218,2.411,1.353,2.877
		c1.202,0.495,2.578-0.08,3.072-1.282l7.113-17.309c0.069-0.172,0.123-0.366,0.146-0.56l0.032-0.271l0.616-5.116
		c0.039,0.004,0.076,0.01,0.114,0.013l4.109,8.04l-3.313,15.154c-0.254,1.176,0.426,2.383,1.597,2.749
		c1.24,0.388,2.562-0.303,2.949-1.543l5.004-15.988c0.18-0.577,0.17-1.22-0.074-1.824l-0.103-0.252l-3.735-9.231
		c0.451-0.614,0.812-1.312,1.054-2.078l2.027-6.402l4.122,5.256l0.175,0.224c0.53,0.672,1.397,1.048,2.305,0.908l1.827-0.281
		l1.83-0.252c0.606-0.078,1.212-0.149,1.791-0.204c0.287-0.027,0.572-0.049,0.818-0.063l0.227-0.013
		c0.154,0.06,0.313,0.107,0.483,0.131c1.143,0.16,2.192-0.604,2.42-1.719l3.073,6.333l-0.058,0.085h-7.83v3.369h-1.476v15.51h74.169
		v-15.51h-1.473v-3.369H118.757z M41.04,60.078c-0.02,0.143-0.023,0.285-0.017,0.423C41.015,60.363,41.016,60.223,41.04,60.078z
		 M43.604,58.14c-0.24-0.072-0.373-0.097-0.51-0.125c-0.259-0.05-0.458-0.078-0.652-0.104c-0.383-0.05-0.727-0.083-1.069-0.112
		c-0.68-0.057-1.333-0.095-1.985-0.127l-1.942-0.078l-0.241-0.005l-2.231-3.133l5.219,0.196c0.679,0.026,1.321-0.274,1.75-0.783
		l0.858,1.771l1.314,2.711c-0.115-0.061-0.216-0.104-0.297-0.136C43.749,58.187,43.657,58.155,43.604,58.14z M59.512,55.466H92.7
		l7.016,10.409H52.497L59.512,55.466z M110.243,83.158H41.97v-9.616h68.273V83.158z"/>
	<rect x="39.019" y="87.98" width="10.067" height="12.034"/>
	<polygon points="63.313,74.43 43.67,74.43 43.67,82.271 57.417,82.271 	"/>
	<rect x="104.079" y="88.839" width="9.088" height="12.033"/>
	<polygon points="108.624,82.369 108.624,74.528 88.98,74.528 94.87,82.369 	"/>
	<circle cx="32.139" cy="32.949" r="7.82"/>
</g>
</svg>
