<?xml version="1.0" encoding="utf-8"?>
<!-- Generator: Adobe Illustrator 16.0.0, SVG Export Plug-In . SVG Version: 6.00 Build 0)  -->
<!DOCTYPE svg PUBLIC "-//W3C//DTD SVG 1.1//EN" "http://www.w3.org/Graphics/SVG/1.1/DTD/svg11.dtd">
<svg version="1.1" id="Layer_1" xmlns="http://www.w3.org/2000/svg" xmlns:xlink="http://www.w3.org/1999/xlink" x="0px" y="0px"
	 width="126px" height="126px" viewBox="0 0 126 126" enable-background="new 0 0 126 126" xml:space="preserve">
<path d="M20.996,23.382h22.549c-0.779,4.696-4.453,8.594-9.412,9.41C27.906,33.817,22.027,29.604,20.996,23.382z M14.082,22.521
	h36.375c0.512,0,0.928-0.415,0.928-0.927c0-0.513-0.416-0.927-0.928-0.927h-6.061v-4.566c0-4.096-1.711-6.208-5.809-6.208H26.262
	c-4.098,0-5.404,2.112-5.404,6.208v4.566h-6.775c-0.512,0-0.926,0.414-0.926,0.927C13.156,22.105,13.57,22.521,14.082,22.521z
	 M53.168,79.217h2.006v24.192h-6.033V79.217h2.186v-1.546c-1.307-0.188-2.42-1.123-2.779-2.432l-1.924-6.984
	c1.668,14.885,1.652,30.064,1.652,30.064h-6.248c-0.053,7.646-0.096,14.158-0.096,14.158c-0.012,2.018-1.66,3.642-3.68,3.628
	c-1.887-0.012-3.434-1.473-3.611-3.312c0,0-0.629-6.7-1.357-14.475h-0.582l-1.322-15.405l-0.363,15.405h-1.17
	c-0.729,7.774-1.355,14.475-1.355,14.475c-0.188,2.01-1.969,3.485-3.979,3.297c-1.881-0.177-3.295-1.765-3.314-3.613
	c0,0-0.045-6.513-0.096-14.158h-7.564c-0.268-4.574,1.076-18.6,2.385-30.668l-1.906,6.914c-0.445,1.629-2.049,2.701-3.758,2.441
	c-0.119-0.018-0.23-0.057-0.346-0.088v2.298h2.445v17.835H6.326V79.217H8.07V75.7h0.004c-0.531-0.7-0.787-1.602-0.646-2.536
	l2.586-17.038c0.021-0.14,0.061-0.291,0.109-0.429l0.02-0.046l0.391-1.041l0.309-0.773l0.633-1.521
	c0.436-1.009,0.891-2.006,1.373-3.001c0.965-1.984,2.027-3.949,3.285-5.898c1.275-1.943,2.686-3.887,4.754-5.748
	c0.166-0.145,0.342-0.288,0.518-0.433l-2.783-7.774l1.947,0.684l-0.002-0.012l10.051,3.521l-0.006,0.592
	c0.285-0.021,0.572-0.042,0.861-0.042c0.016,0,0.031,0,0.047,0c0.818,0.003,1.613,0.099,2.381,0.271l-0.012-0.821l10.055-3.521
	l-2.785,7.775c0.174,0.144,0.354,0.287,0.518,0.432c2.068,1.861,3.48,3.807,4.756,5.75c1.258,1.947,2.318,3.912,3.285,5.898
	c0.48,0.994,0.938,1.991,1.371,2.999l0.635,1.522l0.307,0.773l0.393,1.037l0.016,0.047c0.053,0.139,0.092,0.289,0.111,0.43
	l2.588,17.038c0.23,1.535-0.617,2.972-1.969,3.576V79.217z M34.551,61.804c0-1.262-1.02-2.283-2.281-2.283
	c-1.26,0-2.281,1.021-2.281,2.283c0,1.26,1.021,2.281,2.281,2.281C33.531,64.085,34.551,63.063,34.551,61.804z M34.551,52.815
	c0-1.26-1.02-2.281-2.281-2.281c-1.26,0-2.281,1.021-2.281,2.281s1.021,2.281,2.281,2.281
	C33.531,55.097,34.551,54.075,34.551,52.815z M34.551,44.114c0-1.262-1.02-2.283-2.281-2.283c-1.26,0-2.281,1.021-2.281,2.283
	s1.021,2.281,2.281,2.281C33.531,46.396,34.551,45.376,34.551,44.114z M119.188,78.701h-9.521c0-6.109-4.949-11.056-11.053-11.056
	c-6.109,0-11.057,4.946-11.057,11.056h-29.85v-1.484h-0.848c0.682-1.068,0.984-2.37,0.789-3.681l-2.584-17.011
	c-0.039-0.287-0.117-0.588-0.193-0.783l-1.412-3.544c-0.15-0.353-0.313-0.711-0.473-1.068h4.625V38.848H45.525
	c-0.459-0.515-0.951-1.03-1.492-1.544l1.234-3.444h29.697c8.6,0,25,21.156,25,21.156s9.396,1.574,15.537,5.258
	C121.648,63.959,119.188,78.701,119.188,78.701z M90.32,51.13c0,0-9.674-12.282-14.281-12.282c-4.609,0-12.895,0-12.895,0V51.13
	H90.32z M115.656,62.339h-5.094v3.229h5.094V62.339z M108.723,78.696c0,5.441-4.412,9.849-9.848,9.849
	c-5.434,0-9.842-4.407-9.842-9.849c0-5.435,4.408-9.842,9.842-9.842C104.311,68.854,108.723,73.262,108.723,78.696z M103.191,78.696
	c0-2.378-1.938-4.313-4.316-4.313s-4.316,1.936-4.316,4.313c0,2.383,1.938,4.322,4.316,4.322S103.191,81.079,103.191,78.696z
	 M57.707,82.84h29.158v-3.225H57.707V82.84z"/>
</svg>
