<?xml version="1.0" encoding="utf-8"?>
<!-- Generator: Adobe Illustrator 16.0.0, SVG Export Plug-In . SVG Version: 6.00 Build 0)  -->
<!DOCTYPE svg PUBLIC "-//W3C//DTD SVG 1.1//EN" "http://www.w3.org/Graphics/SVG/1.1/DTD/svg11.dtd">
<svg version="1.1" id="Layer_1" xmlns="http://www.w3.org/2000/svg" xmlns:xlink="http://www.w3.org/1999/xlink" x="0px" y="0px"
	 width="126px" height="126px" viewBox="0 0 126 126" enable-background="new 0 0 126 126" xml:space="preserve">
<g>
	<path d="M98.35,14.682h22.063v-3.457h-20.131c-10.088,0-18.877,3.826-20.585,17.207l-4.875,21.285
		c-0.452,0.208-0.884,0.437-1.298,0.675l-1.143-10.202c0,0-7.209-9.435-11.069-2.264c-3.86,7.171,0,9.749,0,9.749l11.175,3.356
		c-3.777,2.522-6.205,6.357-6.205,10.67v5.651v6.573v0.73l-9.03-18.98l0.234-0.894c0.339-1.287-0.296-2.667-1.552-3.222
		c-0.24-0.106-0.487-0.163-0.734-0.198l-3.466-7.284c-0.815-1.716-1.257-2.937-1.386-3.842c-0.174-1.221,0.283-1.437,0.502-1.542
		c0.629-0.298,1.677-0.185,2.671,0.29c1.222,0.583,2.231,1.61,2.841,2.892l1.262-0.6c-0.746-1.57-1.99-2.833-3.501-3.554
		c-1.4-0.668-2.848-0.777-3.873-0.29c-0.731,0.348-1.548,1.151-1.284,3.001c0.148,1.049,0.628,2.398,1.507,4.245l3.269,6.872
		c-0.621,0.264-1.152,0.75-1.447,1.417l-3.296,7.441l-13.433,1.232c-0.104,0.01-0.217,0.024-0.32,0.042
		c-1.597,0.271-2.826,1.413-3.289,2.856c-0.787,0.907-1.407,1.984-1.793,3.202l-5.78,18.255c-0.562,1.775-0.548,3.595-0.066,5.26
		l-0.231,6.722l-15.919,2.191c-1.487,0.21-2.623,1.513-2.575,3.049c0.051,1.647,1.428,2.941,3.074,2.89l19.654-0.609
		c1.832-0.055,3.399-1.441,3.625-3.316l0.046-0.38l0.481-3.999c0.011,0.001,0.021,0.001,0.031,0.001l6.802,7.918l-16.764,3.141
		c-1.52,0.289-2.591,1.708-2.413,3.269c0.186,1.636,1.664,2.811,3.301,2.625l23.681-2.701c0.618-0.073,1.243-0.301,1.782-0.694
		c1.675-1.219,2.044-3.565,0.825-5.24l-0.173-0.236L40.66,93.681c0.434-0.669,0.791-1.404,1.045-2.202l4.645-14.67l2.294,2.361
		l0.243,0.251c0.283,0.29,0.635,0.523,1.039,0.674l17.163,6.406c0.186,0.069,0.376,0.111,0.565,0.138
		c1.326,2.516,3.537,4.646,6.318,6.121v13.106c0,4.435,5.471,8.028,12.23,8.028c6.754,0,12.234-3.593,12.234-8.028V94.963h21.975
		V77.758h-14.496V73.17h14.496v-1.338H106.3v-4.59h14.112V46.763H79.998c-0.336,0-0.665,0.028-0.994,0.041l5.248-21.017
		C85.229,19.827,91.846,14.682,98.35,14.682z M48.779,67.891l3.105-0.528l0.411-0.069c1.182-0.203,2.195-1.075,2.519-2.311
		l1.888-7.209l9.579,20.135v2.108l-12.668-6.089L48.779,67.891z M100.557,66.92v10.492H78.479V66.92H100.557z"/>
	<circle cx="38.824" cy="50.835" r="9.909"/>
</g>
</svg>
