<?xml version="1.0" encoding="utf-8"?>
<!-- Generator: Adobe Illustrator 16.0.0, SVG Export Plug-In . SVG Version: 6.00 Build 0)  -->
<!DOCTYPE svg PUBLIC "-//W3C//DTD SVG 1.1//EN" "http://www.w3.org/Graphics/SVG/1.1/DTD/svg11.dtd">
<svg version="1.1" id="Layer_1" xmlns="http://www.w3.org/2000/svg" xmlns:xlink="http://www.w3.org/1999/xlink" x="0px" y="0px"
	 width="126px" height="126px" viewBox="0 0 126 126" enable-background="new 0 0 126 126" xml:space="preserve">
<g>
	<circle cx="102.249" cy="19.663" r="12.096"/>
	<path d="M101.869,33.69c-2.024-1.916-4.765-3.081-7.77-3.04c-6.125,0.083-11.021,5.117-10.937,11.241l1.051,13.767
		C85.2,47.989,88.063,35.375,101.869,33.69z"/>
	<path d="M105.643,65.585c0.009-0.208,0.021-0.414,0.019-0.625l-0.32-23.373c-0.142-4.043-3.047-7.098-3.047-7.098
		c-17.34,1.854-18.391,22.702-18.435,26.584h-2.445c0.409-0.305,0.76-0.698,0.996-1.189c0.785-1.634,0.097-3.595-1.537-4.379
		l-18.634-8.956l-9.028-11.275c-0.098-0.121-0.206-0.245-0.317-0.359c-0.544-0.56-1.191-0.948-1.88-1.198
		c-0.929-0.682-1.976-1.233-3.136-1.601c-1.854-0.587-3.745-0.642-5.519-0.263c-0.722-0.11-1.479-0.069-2.224,0.16l-13.878,4.274
		l-0.425,0.131c-0.895,0.278-1.687,0.892-2.169,1.781l-4.946,9.104l-2.444,4.586l-1.212,2.331l-0.608,1.207l-0.324,0.676
		l-0.204,0.447c-0.161,0.381-0.283,0.787-0.359,1.186c-0.252,1.793,0.999,3.45,2.793,3.701c1.793,0.251,3.45-1,3.701-2.793
		c0.005,0.199-0.036,0.406-0.115,0.588l-0.03,0.066l0.017-0.027l0.033-0.056l0.067-0.11l0.282-0.461l0.658-1.04l1.384-2.126
		l2.845-4.271l4.686-6.917l2.969-0.604l-5.461,17.246c-0.486,1.534-0.602,3.093-0.417,4.591c-0.234,0.575-0.379,1.198-0.401,1.856
		l-0.468,13.566L12.137,104.76c-0.916,1.574-0.502,3.629,1.013,4.7c1.603,1.136,3.822,0.756,4.957-0.848l16.771-23.69
		c0.365-0.52,0.622-1.149,0.702-1.823l0.05-0.406l0.931-7.729c0.172,0.02,0.343,0.037,0.514,0.047l11.777,13.712l-4.961,22.284
		c-0.392,1.787,0.643,3.619,2.422,4.169c1.876,0.579,3.866-0.472,4.446-2.348l7.465-24.175c0.366-1.215,0.188-2.604-0.618-3.71
		l-0.216-0.298l-10.59-14.549c0.518-0.799,0.943-1.674,1.244-2.625l5.537-17.488l2.735,2.814l0.29,0.3
		c0.338,0.345,0.756,0.624,1.238,0.804l19.217,7.172h-1.085v19.23l13.484,0.641l-0.191,34.26c-0.004,1.863,1.414,3.471,3.305,3.646
		c2.002,0.186,3.776-1.286,3.962-3.289l3.801-40.985c0.256-0.156,0.502-0.326,0.744-0.502l-9.979-16.961
		c-0.129-0.219-0.231-0.447-0.323-0.68c0.398,0.15,0.805,0.281,1.208,0.42l10.706,18.194c0.874,1.476,2.75,2.082,4.332,1.335
		c1.679-0.792,2.396-2.795,1.604-4.475L105.643,65.585z M83.859,61.091c-0.004,0.367,0.001,0.587,0.001,0.609l-0.426,0.014
		L83.859,61.091z M91.201,62.993v16.672l-13.946-0.642V62.353L91.201,62.993z"/>
	<polygon points="90.045,64.149 78.411,63.509 78.411,68.841 90.045,69.481 	"/>
	<polygon points="90.045,70.467 87.934,70.382 87.934,71.938 84.972,71.767 84.972,70.126 83.391,70.081 83.306,71.723 
		80.429,71.553 80.429,70.039 78.411,69.996 78.411,77.868 90.045,78.509 	"/>
	<path fill="#0E0F0F" d="M42.001,13.271l0.728-2.445c0.82-2.734,3.7-4.292,6.431-3.473l10.9,3.252
		c2.74,0.821,4.293,3.699,3.476,6.437l-0.588,1.978c1.369,1.486,2.442,3.264,1.9,4.888c-0.48,1.441-2.063,0.822-3.817-0.471
		c-0.044,0.173-0.076,0.347-0.128,0.521c-1.675,5.603-7.572,8.788-13.174,7.113c-5.603-1.672-8.781-7.567-7.113-13.171
		c0.348-1.164,0.885-2.216,1.559-3.148C41.847,14.528,41.752,14.099,42.001,13.271z"/>
</g>
</svg>
