<?xml version="1.0" encoding="utf-8"?>
<!-- Generator: Adobe Illustrator 16.0.0, SVG Export Plug-In . SVG Version: 6.00 Build 0)  -->
<!DOCTYPE svg PUBLIC "-//W3C//DTD SVG 1.1//EN" "http://www.w3.org/Graphics/SVG/1.1/DTD/svg11.dtd">
<svg version="1.1" id="Layer_1" xmlns="http://www.w3.org/2000/svg" xmlns:xlink="http://www.w3.org/1999/xlink" x="0px" y="0px"
	 width="126px" height="126px" viewBox="0 0 126 126" enable-background="new 0 0 126 126" xml:space="preserve">
<g>
	<path d="M71.181,67.04l-11.943,4.348l-7.098-8.01c-0.096-0.109-0.202-0.216-0.313-0.315c-0.07-0.062-0.144-0.118-0.217-0.175
		c-0.883-1.936-2.451-3.417-4.783-3.938c-4.858-1.088-9.678,1.972-10.764,6.83l-3.604,16.12c-0.109,0.491-0.166,0.943-0.193,1.374
		l-0.702,3.649h0.21c-0.02,0.131-0.04,0.264-0.05,0.398l-1.075,14.582l-15.167-2.77c-1.646-0.303-3.293,0.674-3.788,2.315
		c-0.532,1.762,0.465,3.621,2.227,4.153l19.783,5.97c0.207,0.061,0.444,0.114,0.665,0.144c2.338,0.314,4.487-1.326,4.801-3.664
		l0.052-0.379l1.709-12.727c0.625,0.618,1.415,1.086,2.33,1.315l10.393,2.604l1.983,20.291c0.171,1.704,1.626,3.034,3.368,3.005
		c1.84-0.031,3.305-1.545,3.274-3.384l-0.39-23.567c-0.031-1.591-1.011-3.088-2.589-3.688l-0.401-0.152l-11.705-4.446h0.283
		c0.021-0.183,0.053-0.358,0.093-0.528l-0.622-0.074c0.504-1.002,0.881-2.182,1.174-3.493l3.141-9.878l4.821,4.322l0.227,0.204
		c0.843,0.754,2.083,0.985,3.18,0.49l11.69-5.276v29.658l34.352,11.212V27.344L71.181,16.132V67.04z M75.671,62.531
		c1.111,0,2.013,1.037,2.013,2.314c0,1.278-0.901,2.314-2.013,2.314c-1.11,0-2.012-1.036-2.012-2.314
		C73.659,63.568,74.561,62.531,75.671,62.531z"/>
	<polygon points="62.263,3.84 62.263,68.612 66.219,66.555 66.722,9.986 109.989,24.11 109.989,111.779 114.448,117.924 
		114.448,20.875 	"/>
	<circle cx="49.826" cy="48.886" r="10.302"/>
</g>
</svg>
