<?xml version="1.0" encoding="utf-8"?>
<!-- Generator: Adobe Illustrator 16.0.0, SVG Export Plug-In . SVG Version: 6.00 Build 0)  -->
<!DOCTYPE svg PUBLIC "-//W3C//DTD SVG 1.1//EN" "http://www.w3.org/Graphics/SVG/1.1/DTD/svg11.dtd">
<svg version="1.1" id="Layer_1" xmlns="http://www.w3.org/2000/svg" xmlns:xlink="http://www.w3.org/1999/xlink" x="0px" y="0px"
	 width="126px" height="126px" viewBox="0 0 126 126" enable-background="new 0 0 126 126" xml:space="preserve">
<path d="M30.04,107.426c0.012,0.372,0.021,0.744,0.035,1.115H16.294V11.934h76.235l9.493-7.914l0.714,0.855l-9.816,8.183v21.076
	c1.701-0.888,3.684-1.273,5.726-0.967c5.121,0.77,8.649,5.545,7.88,10.666c-0.77,5.122-5.545,8.649-10.665,7.881
	c-2.958-0.444-5.378-2.229-6.751-4.64l0.006,0.342l-5.684,0.109l-0.013-0.661l5.519-0.106c-0.883-1.697-1.266-3.674-0.959-5.711
	c0.381-2.525,1.736-4.661,3.625-6.088V13.047H17.408v94.379H30.04z M109.38,81.086c0.124,1.649-0.715,3.295-2.271,4.12
	c-0.058,0.031-0.129,0.066-0.188,0.095l-0.64,0.3c-0.945,0.716-2.039,1.245-3.234,1.52l-5.59,2.626l-2.499,3.044l7.466,7.031
	c1.136,1.069,1.189,2.855,0.12,3.992c-0.994,1.055-2.62,1.166-3.755,0.318l-5.869-4.417v8.39l9.906,13.209l-0.893,0.667
	l-10.078-13.439h-1.969l1.002,8.176c0.189,1.547-0.91,2.956-2.457,3.145c-1.461,0.18-2.801-0.803-3.105-2.212l-1.943-9.108H69.906
	c-0.014-0.372-0.016-0.743-0.023-1.115h13.264l-1.645-7.715c-0.199-0.93,0.02-1.852,0.528-2.569l0.169-0.237l2.443-3.42
	l-0.133-0.101c-1.621-1.219-1.943-3.52-0.726-5.137c0.33-0.44,0.739-0.784,1.193-1.027l0.282-0.148l6.385-3.39l1.403-1.965
	c-0.07-0.19-0.131-0.386-0.19-0.583l4.939-4.507l5.813-5.521c-0.215-0.437-0.408-0.876-0.592-1.316
	c-0.142,0.543-0.429,1.028-0.821,1.401l-5.964,5.664l-3.016,2.816l-1.538,1.408l-0.8,0.714l-0.453,0.388l-0.3,0.249
	c-0.259,0.201-0.546,0.379-0.835,0.52c-1.324,0.561-2.853-0.058-3.412-1.382c-0.561-1.323,0.057-2.852,1.381-3.413
	c-0.153,0.038-0.305,0.113-0.428,0.211l-0.043,0.036l0.018-0.018l0.035-0.037l0.07-0.075l0.297-0.311l0.66-0.719l1.346-1.498
	l2.691-3.059l4.34-5.015l-0.12-1.96c-0.019-0.024-0.04-0.045-0.059-0.069l0.046,0.738l-3.751,4.334l-0.161-8.708l-4.303,1.007
	l-0.444,0.104c-1.69,0.395-3.38-0.655-3.776-2.346c-0.043-0.188-0.07-0.395-0.079-0.582l-0.388-9.139
	c-0.061-1.441,1.059-2.66,2.5-2.722c1.289-0.055,2.4,0.835,2.664,2.054l1.076,4.939l7.403-2.542
	c0.296-0.102,0.596-0.162,0.894-0.192c0.896-0.337,1.858-0.538,2.869-0.557c0.055-0.002,0.108-0.002,0.162-0.002
	c4.675,0,8.508,3.746,8.592,8.44l0.334,18.117C109.719,79.454,109.604,80.292,109.38,81.086z M91.604,98.724l-0.936-0.705
	l-1.802,2.195l0.884,7.212h1.854V98.724z M82.317,46.031c0.016-0.019,1.571-1.896,0.028-4.386c-0.633-1.025-0.642-1.59-0.537-1.885
	c0.104-0.292,0.35-0.379,0.359-0.383l-0.102-0.314l-0.098-0.316c-0.057,0.018-0.555,0.187-0.774,0.771
	c-0.235,0.628-0.038,1.461,0.591,2.476c1.281,2.07,0.08,3.549,0.028,3.609L82.317,46.031z M83.811,43.593l0.504,0.429
	c0.016-0.019,1.571-1.895,0.029-4.386c-0.635-1.024-0.643-1.59-0.538-1.884c0.104-0.292,0.349-0.38,0.358-0.384l-0.102-0.314
	l-0.098-0.316c-0.056,0.019-0.555,0.187-0.773,0.771c-0.236,0.629-0.038,1.462,0.59,2.477
	C85.063,42.054,83.861,43.533,83.811,43.593z M86.584,25.786h-8.167h-0.5H69.75v-3.188h2.166v-2.701h8.668v2.701h6V25.786z
	 M77.917,23.099H70.25v2.188h7.667V23.099z M80.084,22.583v-2.186h-7.668v2.186H80.084z M86.084,23.099h-7.667v2.188h7.667V23.099z
	 M31,39.444v2.703h4v3.186h-6.166h-0.5h-8.168v-3.186h2.167v-2.703H31z M28.334,42.647h-7.668v2.186h7.668V42.647z M30.5,42.132
	v-2.188h-7.667v2.188H30.5z M28.834,42.647v2.186H34.5v-2.186H28.834z M45.126,23.93c-5.28,0.875-8.853,5.863-7.979,11.144
	c0.874,5.281,5.863,8.854,11.145,7.979c5.279-0.873,8.852-5.863,7.979-11.143C55.396,26.628,50.407,23.056,45.126,23.93z
	 M74.467,88.07c-5.877,0-10.642-5.397-10.642-12.056c0-3.292,1.835-7.053,4.067-9.631l-3.989,1.028
	c-1.094,0.282-2.201-0.062-2.943-0.806l-0.266-0.268l-5.258-5.293l-0.034,10.053c-0.005,1.082-0.211,2.113-0.566,3.07
	c0.082,0.279,0.143,0.57,0.171,0.872c0.012,0.129,0.019,0.264,0.02,0.389l0.282,34.937c0.014,1.612-1.281,2.928-2.894,2.941
	c-1.521,0.012-2.779-1.153-2.927-2.639l-2.777-28.955l-2.861,28.319c-0.162,1.603-1.593,2.771-3.195,2.608
	c-1.513-0.152-2.639-1.447-2.623-2.938l0.433-34.667c0-0.069,0.01-0.137,0.014-0.205c-0.542-1.154-0.852-2.438-0.847-3.796
	l0.033-9.451c-0.245,0.561-0.481,1.162-0.706,1.769c-0.27,0.731-0.523,1.47-0.762,2.19c-0.477,1.445-0.889,2.82-1.225,3.996
	c-0.335,1.176-0.592,2.161-0.747,2.811c-0.064,0.279-0.114,0.5-0.148,0.649l-0.009,0.033l-0.001-0.019l-0.002-0.016
	c-0.001-0.012-0.003,0.016-0.002-0.068c-0.006-0.232-0.038-0.35-0.038-0.35c0.243,1.466-0.747,2.853-2.212,3.096
	c-0.038,0.007-0.076,0.003-0.114,0.008l-0.622,2.141l-0.502-0.146l1.438,2.436c-3.744,10.718-6.336,13.248-6.336,13.248
	c-0.161,0.315-0.535,0.459-0.864,0.328c-0.329-0.13-0.505-0.488-0.408-0.829l4.552-15.652l-0.074-0.021l0.646-2.219
	c-0.41-0.39-0.71-0.903-0.811-1.505c0,0-0.034-0.169-0.043-0.502c0-0.074,0.002-0.164,0.004-0.273
	c0.003-0.07,0.007-0.151,0.014-0.243c0.021-0.312,0.054-0.632,0.101-1.034c0.096-0.797,0.249-1.865,0.461-3.145
	c0.211-1.277,0.477-2.757,0.807-4.351c0.165-0.798,0.346-1.622,0.553-2.472c0.21-0.853,0.432-1.717,0.729-2.641l0.116-0.35
	l0.146-0.403l0.124-0.328l0.027-0.074l0.014-0.036l0.038-0.09l0.091-0.194l0.372-0.771l0.372-0.671
	c0.5-0.864,1.001-1.622,1.494-2.326c0.988-1.406,1.94-2.618,2.77-3.645c0.831-1.022,1.538-1.852,2.042-2.433
	c0.517-0.584,0.811-0.919,0.811-0.919c0.168-0.19,0.353-0.358,0.545-0.51c0.759-0.758,1.651-1.379,2.642-1.823
	c1.11-0.499,3.668,3.666,3.668,3.666s1.943-4.273,2.83-3.972c0.491,0.166,0.961,0.375,1.409,0.62
	c0.506,0.202,0.983,0.505,1.392,0.917c0.054,0.055,0.106,0.113,0.157,0.172c0.664,0.576,1.239,1.25,1.707,1.996
	c0.705,0.827,1.604,1.881,2.604,3.055c-0.019,0.042-0.036,0.085-0.055,0.128l8.082,9.478l6.624-0.73l-0.482-2.997
	c0,0-0.186-0.738,3.229,0.86c3.412,1.6,1.813-2.383,2.797-0.615c0.405,0.729-0.047,2.018-0.611,3.359
	c0.355,0.402,0.601,0.912,0.663,1.488c0.144,1.286-0.649,2.45-1.83,2.844c0.055,0.096,0.126,0.181,0.219,0.249
	c3.47,2.812,9.763,5.169,9.763,11.267C85.108,82.673,80.344,88.07,74.467,88.07z M45.43,49.843c0,0.203,0.165,0.369,0.367,0.369
	h1.136c0.205,0,0.37-0.166,0.37-0.369v-0.922c0-0.203-0.165-0.367-0.37-0.367h-1.136c-0.202,0-0.367,0.164-0.367,0.367V49.843z
	 M48.463,65.373l-1.054-14.464c0-0.246-0.2-0.446-0.446-0.446H45.77c-0.247,0-0.447,0.2-0.447,0.446L44.27,65.373
	c0,0.247,2.126,2.46,2.126,2.46S48.463,65.62,48.463,65.373z M73.336,82.046v1.779h2.5v-1.924c1.638-0.494,2.697-1.828,2.697-3.467
	c0-2.24-1.649-3.199-3.085-3.783c-1.562-0.645-1.679-0.93-1.679-1.289c0-0.474,0.41-0.758,1.1-0.758c0.942,0,1.521,0.33,1.799,0.488
	l0.724,0.412l0.934-2.47l-0.521-0.303c-0.561-0.33-1.177-0.54-1.865-0.636v-1.715h-2.483v1.871
	c-1.586,0.474-2.577,1.724-2.577,3.314c0,2.056,1.651,2.982,3.26,3.615c1.371,0.555,1.486,0.998,1.486,1.371
	c0,0.584-0.518,0.963-1.32,0.963c-0.715,0-1.485-0.23-2.063-0.615l-0.758-0.506l-0.899,2.508l0.438,0.313
	C71.597,81.627,72.457,81.929,73.336,82.046z"/>
</svg>
